<?xml version="1.0" encoding="utf-8"?>
<!DOCTYPE svg PUBLIC "-//W3C//DTD SVG 1.1//EN" "http://www.w3.org/Graphics/SVG/1.1/DTD/svg11.dtd">
<svg xmlns="http://www.w3.org/2000/svg" xmlns:xlink="http://www.w3.org/1999/xlink" version="1.1" baseProfile="full" width="831.36" height="607.68" viewBox="0 0 831.36 607.68" enable-background="new 0 0 831.36 607.68" xml:space="preserve">
	<path fill="#F39A99" fill-opacity="1" fill-rule="evenodd" stroke-width="0.32" stroke-linejoin="round" d="M 25.3259,296.706L 171.906,513.264C 197.054,550.417 237.707,574.144 282.426,577.769L 645.81,607.22C 727.228,613.818 798.589,553.161 805.199,471.739L 830.487,160.231C 838.065,66.882 758.082,-9.90887 665.122,1.46649L 129.869,66.9652C 20.1059,80.397 -36.6556,205.134 25.3259,296.706 Z "/>
	<path fill="#EEEEEE" fill-opacity="1" stroke-width="0.32" stroke-linejoin="round" d="M 233.306,163.668C 233.306,164.656 232.505,165.459 231.519,165.459C 230.534,165.459 229.732,164.656 229.732,163.668C 229.732,162.68 230.534,161.876 231.519,161.876C 232.505,161.876 233.306,162.68 233.306,163.668 Z M 233.306,149.805C 233.306,150.793 232.504,151.597 231.518,151.597C 230.533,151.597 229.731,150.793 229.731,149.805C 229.731,148.818 230.533,148.014 231.518,148.014C 232.504,148.014 233.305,148.818 233.306,149.805 Z M 233.306,135.942C 233.306,136.93 232.504,137.734 231.518,137.734C 230.533,137.734 229.731,136.93 229.731,135.942C 229.731,134.954 230.533,134.151 231.518,134.151C 232.504,134.151 233.306,134.954 233.306,135.942 Z M 233.306,122.114C 233.301,123.092 232.499,123.892 231.518,123.892C 230.537,123.892 229.735,123.091 229.731,122.063C 229.736,121.087 230.537,120.287 231.518,120.287C 232.499,120.287 233.3,121.086 233.306,122.114 Z M 219.477,163.668C 219.477,164.656 218.676,165.46 217.69,165.46C 216.705,165.46 215.903,164.656 215.903,163.669C 215.903,162.681 216.705,161.877 217.69,161.877C 218.676,161.877 219.477,162.681 219.477,163.668 Z M 219.478,149.805C 219.478,150.793 218.676,151.597 217.69,151.597C 216.705,151.597 215.903,150.793 215.903,149.805C 215.903,148.817 216.705,148.014 217.69,148.014C 218.676,148.014 219.477,148.817 219.478,149.805 Z M 219.478,135.942C 219.478,136.93 218.676,137.734 217.69,137.734C 216.705,137.734 215.903,136.93 215.903,135.942C 215.903,134.954 216.705,134.15 217.69,134.15C 218.676,134.15 219.478,134.954 219.478,135.942 Z M 219.478,122.112C 219.473,123.092 218.671,123.892 217.69,123.892C 216.708,123.892 215.906,123.09 215.903,122.069C 215.908,121.088 216.709,120.287 217.69,120.287C 218.67,120.287 219.472,121.086 219.478,122.112 Z M 205.65,163.668C 205.65,164.656 204.848,165.46 203.862,165.46C 202.877,165.46 202.075,164.656 202.075,163.668C 202.075,162.68 202.877,161.877 203.862,161.877C 204.848,161.877 205.649,162.68 205.65,163.668 Z M 205.65,149.805C 205.65,150.793 204.848,151.597 203.862,151.597C 202.877,151.597 202.075,150.793 202.075,149.805C 202.075,148.817 202.877,148.013 203.862,148.013C 204.848,148.013 205.65,148.817 205.65,149.805 Z M 205.65,135.942C 205.65,136.93 204.848,137.734 203.862,137.734C 202.877,137.734 202.075,136.93 202.075,135.942C 202.075,134.954 202.877,134.15 203.862,134.15C 204.848,134.15 205.65,134.954 205.65,135.942 Z M 205.65,122.111C 205.645,123.091 204.844,123.892 203.862,123.892C 202.881,123.892 202.079,123.091 202.075,122.064C 202.08,121.087 202.882,120.287 203.862,120.287C 204.844,120.287 205.645,121.087 205.65,122.111 Z M 191.822,163.668C 191.822,164.656 191.02,165.46 190.034,165.46C 189.049,165.46 188.247,164.656 188.247,163.668C 188.247,162.68 189.049,161.876 190.034,161.876C 191.02,161.876 191.822,162.68 191.822,163.668 Z M 191.822,149.805C 191.822,150.793 191.02,151.597 190.034,151.597C 189.049,151.597 188.247,150.793 188.247,149.805C 188.247,148.817 189.049,148.013 190.034,148.013C 191.02,148.013 191.822,148.817 191.822,149.805 Z M 191.822,135.942C 191.822,136.93 191.02,137.734 190.034,137.734C 189.049,137.734 188.247,136.93 188.247,135.942C 188.247,134.954 189.049,134.15 190.034,134.15C 191.02,134.15 191.822,134.954 191.822,135.942 Z M 191.822,122.112C 191.817,123.092 191.015,123.892 190.034,123.892C 189.053,123.892 188.252,123.091 188.247,122.063C 188.252,121.087 189.054,120.287 190.034,120.287C 191.014,120.287 191.816,121.086 191.822,122.112 Z M 233.306,108.237C 233.306,109.225 232.504,110.028 231.519,110.028C 230.533,110.028 229.732,109.225 229.732,108.237C 229.732,107.249 230.533,106.445 231.519,106.445C 232.504,106.445 233.306,107.249 233.306,108.237 Z M 233.306,94.3735C 233.306,95.3613 232.504,96.1652 231.519,96.1652C 230.533,96.1652 229.732,95.3613 229.732,94.3735C 229.732,93.3856 230.533,92.5819 231.519,92.5819C 232.504,92.5819 233.306,93.3856 233.306,94.3735 Z M 233.306,80.5105C 233.306,81.4984 232.504,82.3021 231.519,82.3021C 230.533,82.3022 229.732,81.4984 229.732,80.5106C 229.732,79.5226 230.533,78.7188 231.519,78.7188C 232.504,78.7188 233.306,79.5226 233.306,80.5105 Z M 219.478,108.237C 219.478,109.225 218.676,110.028 217.691,110.028C 216.705,110.028 215.904,109.225 215.904,108.237C 215.904,107.249 216.705,106.445 217.691,106.445C 218.676,106.445 219.478,107.249 219.478,108.237 Z M 219.478,94.3734C 219.478,95.3612 218.676,96.1651 217.691,96.1651C 216.705,96.1652 215.904,95.3613 215.904,94.3734C 215.904,93.3854 216.705,92.5818 217.691,92.5818C 218.676,92.5818 219.478,93.3854 219.478,94.3734 Z M 219.478,80.5104C 219.478,81.4982 218.676,82.302 217.691,82.302C 216.705,82.3021 215.904,81.4983 215.904,80.5104C 215.904,79.5225 216.705,78.7186 217.691,78.7186C 218.676,78.7186 219.478,79.5225 219.478,80.5104 Z M 205.65,108.237C 205.65,109.224 204.848,110.028 203.863,110.028C 202.877,110.028 202.076,109.225 202.076,108.237C 202.076,107.249 202.877,106.445 203.863,106.445C 204.848,106.445 205.65,107.249 205.65,108.237 Z M 205.65,94.3733C 205.65,95.3611 204.848,96.165 203.863,96.165C 202.877,96.165 202.076,95.3611 202.076,94.3733C 202.076,93.3854 202.877,92.5817 203.863,92.5817C 204.848,92.5817 205.65,93.3854 205.65,94.3733 Z M 205.65,80.5103C 205.65,81.4982 204.848,82.3019 203.863,82.3019C 202.877,82.3019 202.076,81.4982 202.076,80.5103C 202.076,79.5224 202.877,78.7185 203.863,78.7185C 204.848,78.7185 205.65,79.5224 205.65,80.5103 Z M 191.822,108.236C 191.822,109.224 191.02,110.028 190.035,110.028C 189.049,110.028 188.248,109.224 188.248,108.237C 188.248,107.249 189.049,106.445 190.035,106.445C 191.02,106.445 191.822,107.249 191.822,108.236 Z M 191.822,94.3732C 191.822,95.361 191.02,96.1649 190.035,96.1649C 189.049,96.1649 188.248,95.3611 188.248,94.3732C 188.248,93.3853 189.049,92.5816 190.035,92.5816C 191.02,92.5816 191.822,93.3853 191.822,94.3732 Z M 191.822,80.5102C 191.822,81.498 191.02,82.3018 190.035,82.3018C 189.049,82.3019 188.248,81.498 188.248,80.5103C 188.248,79.5223 189.049,78.7184 190.035,78.7184C 191.02,78.7184 191.822,79.5223 191.822,80.5102 Z "/>
	<path fill="#EEEEEE" fill-opacity="1" stroke-width="0.32" stroke-linejoin="round" d="M 49.9162,255.679C 48.8599,255.679 48.0004,254.825 48.0004,253.776C 48.0004,252.726 48.8598,251.872 49.9161,251.872C 50.9725,251.872 51.832,252.726 51.832,253.776C 51.832,254.825 50.9725,255.679 49.9162,255.679 Z M 64.7387,255.68C 63.6824,255.68 62.8229,254.826 62.8229,253.777C 62.8229,252.727 63.6824,251.873 64.7387,251.873C 65.7949,251.873 66.6544,252.727 66.6544,253.777C 66.6544,254.826 65.7949,255.68 64.7387,255.68 Z M 79.5616,255.68C 78.5052,255.68 77.6458,254.826 77.6458,253.777C 77.6458,252.727 78.5052,251.873 79.5616,251.873C 80.6179,251.873 81.4773,252.727 81.4773,253.777C 81.4773,254.826 80.6179,255.68 79.5616,255.68 Z M 94.3476,255.68C 93.301,255.674 92.4461,254.821 92.4461,253.777C 92.4461,252.731 93.3021,251.877 94.3312,251.873L 94.4013,251.873C 95.445,251.878 96.3003,252.732 96.3003,253.777C 96.3003,254.821 95.4459,255.674 94.3476,255.68 Z M 49.9158,240.953C 48.8595,240.953 48,240.099 48,239.049C 48,238 48.8594,237.146 49.9157,237.146C 50.9721,237.146 51.8316,238 51.8316,239.049C 51.8316,240.099 50.9721,240.953 49.9158,240.953 Z M 64.7388,240.952C 63.6825,240.952 62.823,240.099 62.823,239.049C 62.8229,238 63.6824,237.146 64.7388,237.146C 65.795,237.146 66.6545,238 66.6545,239.049C 66.6545,240.099 65.795,240.953 64.7388,240.952 Z M 79.5617,240.952C 78.5053,240.952 77.6459,240.099 77.6459,239.049C 77.6458,238 78.5053,237.146 79.5617,237.146C 80.618,237.146 81.4774,238 81.4774,239.049C 81.4774,240.099 80.618,240.952 79.5617,240.952 Z M 94.3489,240.952C 93.3015,240.948 92.4462,240.094 92.4462,239.049C 92.4462,238.002 93.3033,237.148 94.3955,237.146C 95.4447,237.15 96.3004,238.004 96.3004,239.049C 96.3004,240.093 95.4464,240.946 94.3489,240.952 Z M 49.9158,226.225C 48.8595,226.225 48.0001,225.371 48.0001,224.321C 48,223.272 48.8595,222.418 49.9158,222.418C 50.9722,222.418 51.8316,223.272 51.8316,224.321C 51.8316,225.371 50.9722,226.225 49.9158,226.225 Z M 64.7388,226.225C 63.6825,226.225 62.823,225.371 62.823,224.321C 62.823,223.272 63.6825,222.418 64.7388,222.418C 65.7951,222.418 66.6545,223.272 66.6545,224.321C 66.6545,225.371 65.7951,226.225 64.7388,226.225 Z M 79.5617,226.225C 78.5054,226.225 77.6459,225.371 77.6459,224.321C 77.6459,223.272 78.5054,222.418 79.5617,222.418C 80.6181,222.418 81.4775,223.272 81.4775,224.321C 81.4775,225.371 80.6181,226.225 79.5617,226.225 Z M 94.3499,226.225C 93.3019,226.22 92.4462,225.366 92.4462,224.321C 92.4462,223.276 93.3022,222.422 94.4002,222.418C 95.4451,222.423 96.3004,223.277 96.3004,224.321C 96.3004,225.366 95.4452,226.22 94.3499,226.225 Z M 49.9159,211.497C 48.8596,211.497 48.0001,210.643 48.0001,209.594C 48.0001,208.544 48.8596,207.69 49.9159,207.69C 50.9722,207.69 51.8317,208.544 51.8317,209.594C 51.8317,210.643 50.9722,211.497 49.9159,211.497 Z M 64.7389,211.497C 63.6826,211.497 62.8231,210.643 62.8231,209.594C 62.8231,208.544 63.6826,207.69 64.7389,207.69C 65.7951,207.69 66.6546,208.544 66.6546,209.594C 66.6546,210.643 65.7951,211.497 64.7389,211.497 Z M 79.5618,211.497C 78.5054,211.497 77.646,210.643 77.646,209.594C 77.646,208.544 78.5054,207.69 79.5618,207.69C 80.6181,207.69 81.4776,208.544 81.4776,209.594C 81.4776,210.643 80.6181,211.497 79.5618,211.497 Z M 94.3491,211.497C 93.3017,211.492 92.4463,210.638 92.4463,209.594C 92.4463,208.549 93.3019,207.695 94.329,207.69L 94.4013,207.69C 95.4456,207.696 96.3005,208.55 96.3005,209.594C 96.3005,210.638 95.4466,211.491 94.3491,211.497 Z M 109.185,255.68C 108.129,255.68 107.269,254.826 107.269,253.776C 107.269,252.727 108.129,251.873 109.185,251.873C 110.241,251.873 111.101,252.727 111.101,253.776C 111.101,254.826 110.241,255.68 109.185,255.68 Z M 124.008,255.679C 122.952,255.679 122.092,254.826 122.092,253.776C 122.092,252.727 122.952,251.873 124.008,251.873C 125.064,251.873 125.924,252.727 125.924,253.776C 125.924,254.826 125.064,255.68 124.008,255.679 Z M 138.831,255.679C 137.775,255.679 136.915,254.826 136.915,253.776C 136.915,252.727 137.775,251.873 138.831,251.873C 139.887,251.873 140.747,252.727 140.747,253.776C 140.747,254.826 139.887,255.679 138.831,255.679 Z M 109.185,240.952C 108.129,240.952 107.269,240.098 107.269,239.048C 107.269,237.999 108.129,237.145 109.185,237.145C 110.241,237.145 111.101,237.999 111.101,239.049C 111.101,240.098 110.241,240.952 109.185,240.952 Z M 124.008,240.952C 122.952,240.952 122.092,240.098 122.092,239.048C 122.092,237.999 122.952,237.145 124.008,237.145C 125.064,237.145 125.924,237.999 125.924,239.048C 125.924,240.098 125.064,240.952 124.008,240.952 Z M 138.831,240.952C 137.775,240.952 136.915,240.098 136.915,239.048C 136.915,237.999 137.775,237.145 138.831,237.145C 139.887,237.145 140.747,237.999 140.747,239.048C 140.747,240.098 139.887,240.952 138.831,240.952 Z M 109.185,226.224C 108.129,226.224 107.27,225.371 107.27,224.321C 107.27,223.272 108.129,222.418 109.185,222.418C 110.241,222.418 111.101,223.272 111.101,224.321C 111.101,225.371 110.241,226.224 109.185,226.224 Z M 124.008,226.224C 122.952,226.224 122.092,225.371 122.092,224.321C 122.092,223.271 122.952,222.418 124.008,222.418C 125.065,222.418 125.924,223.271 125.924,224.321C 125.924,225.371 125.065,226.224 124.008,226.224 Z M 138.831,226.224C 137.775,226.224 136.915,225.37 136.915,224.321C 136.915,223.271 137.775,222.418 138.831,222.418C 139.887,222.418 140.747,223.271 140.747,224.321C 140.747,225.371 139.887,226.224 138.831,226.224 Z M 109.185,211.497C 108.129,211.497 107.27,210.643 107.27,209.594C 107.27,208.544 108.129,207.69 109.185,207.69C 110.242,207.69 111.101,208.544 111.101,209.594C 111.101,210.643 110.242,211.497 109.185,211.497 Z M 124.008,211.497C 122.952,211.497 122.092,210.643 122.092,209.594C 122.092,208.544 122.952,207.69 124.008,207.69C 125.065,207.69 125.924,208.544 125.924,209.594C 125.924,210.643 125.065,211.497 124.008,211.497 Z M 138.831,211.497C 137.775,211.497 136.915,210.643 136.915,209.593C 136.915,208.544 137.775,207.69 138.831,207.69C 139.887,207.69 140.747,208.544 140.747,209.594C 140.747,210.643 139.887,211.497 138.831,211.497 Z "/>
	<path fill="#FFFFFF" fill-opacity="1" fill-rule="evenodd" stroke-width="0.32" stroke-linejoin="round" d="M 784,126.803L 735.924,126.803L 735.924,78.7265L 687.123,78.7265L 687.123,126.803L 639.047,126.803L 639.047,175.604L 687.123,175.604L 687.123,223.68L 735.924,223.68L 735.924,175.604L 784,175.604L 784,126.803 Z "/>
</svg>
