<?xml version="1.0" encoding="utf-8"?>
<!DOCTYPE svg PUBLIC "-//W3C//DTD SVG 1.1//EN" "http://www.w3.org/Graphics/SVG/1.1/DTD/svg11.dtd">
<svg xmlns="http://www.w3.org/2000/svg" xmlns:xlink="http://www.w3.org/1999/xlink" version="1.1" baseProfile="full" width="520.32" height="452.64" viewBox="0 0 520.32 452.64" enable-background="new 0 0 520.32 452.64" xml:space="preserve">
	<linearGradient id="SVGID_Fill1_" gradientUnits="objectBoundingBox" x1="0.527947" y1="0.000942699" x2="1.30903" y2="0.000942699" gradientTransform="rotate(90.000000 0.527947 0.000943)">
		<stop offset="0" stop-color="#FFFFFF" stop-opacity="1"/>
		<stop offset="1" stop-color="#E0E0E0" stop-opacity="1"/>
	</linearGradient>
	<path fill="url(#SVGID_Fill1_)" fill-rule="evenodd" stroke-width="0.32" stroke-linejoin="round" d="M 55.7008,68.1552L 202.284,7.18585C 227.433,-3.27411 255.968,-1.75494 279.86,11.3159L 474.011,117.53C 517.511,141.328 533.478,195.885 509.673,239.387L 418.601,405.816C 391.309,455.689 325.125,467.971 281.765,431.209L 32.1036,219.535C -19.0942,176.127 -6.28217,93.9361 55.7008,68.1552 Z "/>
	<path fill="#FFFFFF" fill-opacity="1" fill-rule="evenodd" stroke-width="0.32" stroke-linejoin="round" d="M 360.32,158.853L 301.947,158.853L 301.947,100.48L 242.693,100.48L 242.693,158.853L 184.32,158.853L 184.32,218.107L 242.693,218.107L 242.693,276.48L 301.947,276.48L 301.947,218.107L 360.32,218.107L 360.32,158.853 Z "/>
</svg>
