<?xml version="1.0" encoding="utf-8"?>
<!DOCTYPE svg PUBLIC "-//W3C//DTD SVG 1.1//EN" "http://www.w3.org/Graphics/SVG/1.1/DTD/svg11.dtd">
<svg xmlns="http://www.w3.org/2000/svg" xmlns:xlink="http://www.w3.org/1999/xlink" version="1.1" baseProfile="full" width="47.9091" height="42.2509" viewBox="0 0 47.91 42.25" enable-background="new 0 0 47.91 42.25" xml:space="preserve">
	<path fill="#FFFFFF" fill-opacity="1" stroke-width="0.32" stroke-linejoin="round" d="M 21.7951,3.75818L 23.995,5.95813L 26.1948,3.75824C 31.2056,-1.25262 39.3302,-1.25281 44.3411,3.75824C 48.2247,7.64191 49.0984,13.3956 46.9624,18.1205L 35.8454,18.1205C 35.8454,18.1205 33.8565,12.527 32.183,12.527C 30.5094,12.5269 28.0078,22.0615 26.859,22.0615C 25.7101,22.0615 25.0296,18.025 24.0055,18.025C 22.9816,18.025 23.0312,21.3307 21.5001,21.7831C 19.9691,22.2355 16.8025,12.6314 15.8282,12.6314C 14.8539,12.6313 12.07,18.1989 12.07,18.1989L 1.07309,18.2202C -1.12076,13.4767 -0.262177,7.66925 3.64883,3.75824C 8.65976,-1.25262 16.7841,-1.25281 21.7951,3.75818 Z M 45.5399,20.5238L 44.3411,21.9047L 42.1413,24.1046L 23.9949,42.2509L 5.84857,24.1046L 3.64865,21.9046L 2.83612,21.0131L 13.3445,21.0131C 13.3445,21.0131 14.9564,17.1723 15.8499,17.1723C 16.7433,17.1723 20.2169,26.4677 21.4044,26.4677C 22.592,26.4676 22.9398,22.601 24.036,22.6009C 25.1322,22.6008 24.9617,26.472 26.8241,26.472C 28.6866,26.472 31.7182,17.2159 32.383,17.2159C 33.0479,17.2158 34.6329,20.5239 34.633,20.5238L 45.5399,20.5238 Z "/>
</svg>
