<?xml version="1.0" encoding="utf-8"?>
<!DOCTYPE svg PUBLIC "-//W3C//DTD SVG 1.1//EN" "http://www.w3.org/Graphics/SVG/1.1/DTD/svg11.dtd">
<svg xmlns="http://www.w3.org/2000/svg" xmlns:xlink="http://www.w3.org/1999/xlink" version="1.1" baseProfile="full" width="599.52" height="1052.16" viewBox="0 0 599.52 1052.16" enable-background="new 0 0 599.52 1052.16" xml:space="preserve">
	<linearGradient id="SVGID_Fill1_" gradientUnits="objectBoundingBox" x1="0.427459" y1="0.0268048" x2="1.37097" y2="0.0268048" gradientTransform="rotate(90.000000 0.427459 0.026805)">
		<stop offset="0" stop-color="#FFFFFF" stop-opacity="1"/>
		<stop offset="1" stop-color="#E0E0E0" stop-opacity="1"/>
	</linearGradient>
	<path fill="url(#SVGID_Fill1_)" fill-rule="evenodd" stroke-width="0.32" stroke-linejoin="round" d="M 286.229,28.7955L 501.409,204.617C 538.326,234.781 562.141,285.077 566.154,341.349L 598.758,798.624C 606.063,901.078 546.887,993.679 466.583,1005.45L 159.355,1050.5C 67.2885,1064 -9.28598,966.314 1.03769,848.539L 60.481,170.397C 72.6708,31.3317 195.24,-45.5504 286.229,28.7955 Z "/>
	<path fill="#F39A99" fill-opacity="1" stroke-width="0.32" stroke-linejoin="round" d="M 540.578,838.58C 542.895,838.58 544.78,840.465 544.78,842.782C 544.78,845.098 542.895,846.983 540.578,846.983C 538.261,846.983 536.377,845.098 536.377,842.782C 536.377,840.465 538.261,838.58 540.578,838.58 Z M 508.07,838.581C 510.386,838.581 512.271,840.465 512.271,842.782C 512.271,845.099 510.386,846.984 508.07,846.984C 505.753,846.984 503.868,845.099 503.868,842.782C 503.868,840.466 505.753,838.581 508.07,838.581 Z M 475.562,838.581C 477.878,838.581 479.763,840.465 479.763,842.782C 479.763,845.099 477.878,846.984 475.562,846.984C 473.245,846.984 471.36,845.099 471.36,842.782C 471.36,840.465 473.245,838.581 475.562,838.581 Z M 540.578,871.089C 542.895,871.089 544.78,872.974 544.78,875.29C 544.779,877.607 542.895,879.492 540.578,879.492C 538.261,879.492 536.376,877.607 536.376,875.29C 536.376,872.974 538.261,871.089 540.578,871.089 Z M 508.07,871.089C 510.386,871.089 512.271,872.974 512.271,875.29C 512.271,877.607 510.386,879.492 508.07,879.492C 505.753,879.492 503.868,877.607 503.868,875.29C 503.868,872.974 505.753,871.089 508.07,871.089 Z M 475.562,871.089C 477.878,871.089 479.763,872.973 479.763,875.29C 479.763,877.607 477.878,879.492 475.562,879.492C 473.245,879.492 471.36,877.607 471.36,875.29C 471.36,872.974 473.245,871.089 475.562,871.089 Z M 540.578,903.597C 542.895,903.597 544.78,905.482 544.78,907.798C 544.78,910.115 542.895,912 540.578,912C 538.261,912 536.376,910.115 536.376,907.798C 536.376,905.482 538.261,903.597 540.578,903.597 Z M 508.07,903.597C 510.386,903.597 512.271,905.482 512.271,907.798C 512.271,910.115 510.386,912 508.07,912C 505.753,912 503.868,910.115 503.868,907.798C 503.868,905.482 505.753,903.597 508.07,903.597 Z M 475.562,903.597C 477.878,903.597 479.763,905.481 479.763,907.798C 479.763,910.115 477.878,912 475.562,912C 473.245,912 471.36,910.115 471.36,907.798C 471.36,905.482 473.245,903.597 475.562,903.597 Z "/>
	<path fill="#F39A99" fill-opacity="1" stroke-width="0.32" stroke-linejoin="round" d="M 540.578,746C 542.895,746 544.78,747.885 544.78,750.202C 544.78,752.518 542.895,754.403 540.578,754.403C 538.261,754.403 536.377,752.518 536.377,750.202C 536.377,747.885 538.261,746 540.578,746 Z M 508.07,746.001C 510.386,746.001 512.271,747.885 512.271,750.202C 512.271,752.519 510.386,754.404 508.07,754.404C 505.753,754.404 503.868,752.519 503.868,750.202C 503.868,747.885 505.753,746.001 508.07,746.001 Z M 475.562,746C 477.878,746 479.763,747.885 479.763,750.202C 479.763,752.519 477.878,754.403 475.562,754.403C 473.245,754.403 471.36,752.519 471.36,750.202C 471.36,747.885 473.245,746.001 475.562,746 Z M 540.578,778.509C 542.895,778.509 544.78,780.393 544.78,782.71C 544.779,785.027 542.895,786.912 540.578,786.912C 538.261,786.912 536.376,785.027 536.376,782.71C 536.376,780.393 538.261,778.509 540.578,778.509 Z M 508.07,778.508C 510.386,778.508 512.271,780.393 512.271,782.71C 512.271,785.027 510.386,786.912 508.07,786.912C 505.753,786.912 503.868,785.027 503.868,782.71C 503.868,780.393 505.753,778.509 508.07,778.508 Z M 475.562,778.508C 477.878,778.508 479.763,780.393 479.763,782.71C 479.763,785.027 477.878,786.911 475.562,786.911C 473.245,786.911 471.36,785.027 471.36,782.71C 471.36,780.393 473.245,778.508 475.562,778.508 Z M 540.578,811.017C 542.895,811.017 544.78,812.901 544.78,815.218C 544.78,817.535 542.895,819.42 540.578,819.42C 538.261,819.42 536.376,817.535 536.376,815.218C 536.376,812.901 538.261,811.017 540.578,811.017 Z M 508.07,811.017C 510.386,811.017 512.271,812.901 512.271,815.218C 512.271,817.535 510.386,819.42 508.07,819.42C 505.753,819.42 503.868,817.535 503.868,815.218C 503.868,812.901 505.753,811.017 508.07,811.017 Z M 475.562,811.016C 477.878,811.016 479.763,812.901 479.763,815.218C 479.763,817.535 477.878,819.42 475.562,819.42C 473.245,819.42 471.36,817.535 471.36,815.218C 471.36,812.901 473.245,811.017 475.562,811.016 Z "/>
</svg>
